 http://www.imdb.com/title/tt0246578/

Source: Donnie.Darko.2001.DirCut.720p.Blu-Ray.DTS.x264-ESiR Thanks!

Subs: Arabic, Brazilian, Czech, Danish, Dutch, English, Estonian, Finnish, French, German, Greek, Hebrew, Hungarian, Indonesian, Persian, Portuguese, Servian, Slovenian, Spanish, Swedish, Thai, Turkish and Vietnamese.

Sample and Screens included.

General
Complete name                            : Donnie Darko-720p MP4 AAC x264 DC BRRip 2001-CC.mp4
Format                                   : MPEG-4
Format profile                           : Base Media
Codec ID                                 : isom
File size                                : 3.27 GiB
Duration                                 : 2h 13mn
Overall bit rate mode                    : Variable
Overall bit rate                         : 3 500 Kbps
Encoded date                             : UTC 2012-12-04 18:31:46

Video
ID                                       : 1
Format                                   : AVC
Format/Info                              : Advanced Video Codec
Format profile                           : High@L4.1
Format settings, CABAC                   : Yes
Format settings, ReFrames                : 5 frames
Codec ID                                 : avc1
Codec ID/Info                            : Advanced Video Coding
Duration                                 : 2h 13mn
Bit rate                                 : 3 173 Kbps
Maximum bit rate                         : 30.9 Mbps
Width                                    : 1 280 pixels
Height                                   : 544 pixels
Display aspect ratio                     : 2.35:1
Frame rate mode                          : Variable
Frame rate                               : 23.976 fps
Minimum frame rate                       : 15.873 fps
Maximum frame rate                       : 24.390 fps
Color space                              : YUV
Chroma subsampling                       : 4:2:0
Bit depth                                : 8 bits
Scan type                                : Progressive
Bits/(Pixel*Frame)                       : 0.190
Stream size                              : 2.91 GiB (89%)
Writing library                          : x264 core 112

Audio
ID                                       : 2
Format                                   : AAC
Format/Info                              : Advanced Audio Codec
Format profile                           : LC
Codec ID                                 : 40
Duration                                 : 2h 13mn
Bit rate mode                            : Variable
Bit rate                                 : 384 Kbps
Maximum bit rate                         : 596 Kbps
Channel(s)                               : 6 channels
Channel positions                        : Front: L C R, Side: L R, LFE
Sampling rate                            : 48.0 KHz
Compression mode                         : Lossy
Delay relative to video                  : 83ms
Stream size                              : 368 MiB (11%)
Language                                 : English

Enjoy...

Requested by aartje80

Coming soon: Buffalo 66, Blade Trilogy, The Lord of the Rings 1978 and more...